<svg class="icon" style="vertical-align: middle;fill: currentColor;overflow: hidden;" viewBox="0 0 1024 1024" version="1.1" xmlns="http://www.w3.org/2000/svg" p-id="1303"><path d="M515.794644 1024c-1.46516-0.293032-2.930319-0.73258-4.322221-0.879096a31.77931 31.77931 0 0 0-3.574989 0.879096h7.89721zM513.333176 0h-2.930319L50.709052 125.27114v377.425097c0 328.488768 248.066161 478.814137 460.807326 520.424667 223.114494-53.038775 461.525254-211.129489 461.525254-520.424667V125.27114z m372.795192 502.696237c0 262.410073-201.95759 381.527543-376.384833 431.049936-172.683703-42.343111-372.150522-156.918586-372.150522-431.049936V192.668479l374.289655-103.440263 374.275003 103.440263v310.027758z m-643.600629 91.132923l51.192674-322.188582h162.163857a347.638403 347.638403 0 0 1 35.031965 2.197739 98.561282 98.561282 0 0 1 37.918329 12.453856 60.174102 60.174102 0 0 1 26.856374 34.724281 114.150579 114.150579 0 0 1 3.926627 51.720132 151.790528 151.790528 0 0 1-14.768808 49.668908 102.912806 102.912806 0 0 1-33.347031 39.412792 111.557247 111.557247 0 0 1-38.255315 16.556303 260.344198 260.344198 0 0 1-49.229361 3.809414h-86.51767l-17.992159 112.084705z m197.195822-182.85191a43.192903 43.192903 0 0 0 20.688052-3.955931 32.673058 32.673058 0 0 0 12.234082-14.065531 67.573158 67.573158 0 0 0 7.149979-19.340106 34.094262 34.094262 0 0 0-2.080527-18.900558 17.860295 17.860295 0 0 0-7.999771-9.816569 31.969781 31.969781 0 0 0-12.102218-2.930319H360.37052l-11.281728 69.009014h90.634769z m246.454485 299.478609l-61.316926-102.707683-50.914294 44.833882-11.281729 58.313349h-76.715753l54.503935-279.552439h76.715753l-21.66971 106.663614 115.864817-106.81013 98.561282 0.146516-131.864359 126.150236 93.623695 152.523107z" fill="white" p-id="1304"></path></svg>